# xmcd
#
# Track frame offsets: 
#        150
#        22802
#        40276
#        70495
#        88674
#        107919
#        127995
#        148024
#        162860
#        181831
#
# Disc length: 2671 seconds
#
# Revision: 2
# Processed by: cddbd v1.5.2PL0 Copyright (c) Steve Scherf et al.
# Submitted via: ExactAudioCopy v0.99pb4
#
DISCID=820a6d0a
DTITLE=Syaharani - Syaharani
DYEAR=2005
DGENRE=Jazz
TTITLE0=A Whiter Shade Of Pale
TTITLE1=Autumn Leaves
TTITLE2=Careless Whisper
TTITLE3=Kesan
TTITLE4=Fragile
TTITLE5=I Can See Clearly Now
TTITLE6=You Light Up My Life
TTITLE7=Make It With You
TTITLE8=Your Eyes
TTITLE9=Lately
EXTD=
EXTT0=
EXTT1=
EXTT2=
EXTT3=
EXTT4=
EXTT5=
EXTT6=
EXTT7=
EXTT8=
EXTT9=
PLAYORDER=
